<?xml version="1.0"?>
<svg xmlns="http://www.w3.org/2000/svg" height="512px" version="1.1" viewBox="-51 0 592 592.83419" width="512px">
<g id="surface1">
<path d="M 162.441406 475.851562 L 162.441406 527.390625 C 162.441406 531.894531 166.09375 535.550781 170.601562 535.550781 L 201.710938 535.550781 L 201.710938 584.839844 C 201.710938 589.347656 205.363281 593 209.871094 593 L 291.308594 593 C 295.816406 593 299.46875 589.347656 299.46875 584.839844 L 299.46875 535.550781 L 330.414062 535.550781 C 334.921875 535.582031 338.59375 531.949219 338.628906 527.445312 C 338.628906 527.429688 338.628906 527.40625 338.628906 527.390625 L 338.628906 472.019531 C 463.898438 420.660156 523.808594 277.480469 472.453125 152.210938 C 421.097656 26.941406 277.910156 -32.96875 152.640625 18.386719 C 27.371094 69.742188 -32.539062 212.929688 18.820312 338.195312 C 45.125 402.347656 97.367188 452.367188 162.609375 475.851562 Z M 282.929688 576.570312 L 217.8125 576.570312 L 217.8125 535.550781 L 283.148438 535.550781 Z M 322.199219 519.28125 L 178.707031 519.28125 L 178.707031 480.945312 C 225.753906 494.359375 275.746094 493.328125 322.199219 477.988281 Z M 245.523438 16.246094 C 371.953125 16.246094 474.453125 118.738281 474.453125 245.171875 C 474.453125 371.605469 371.953125 474.101562 245.523438 474.101562 C 119.09375 474.101562 16.597656 371.609375 16.597656 245.171875 C 16.746094 118.800781 119.152344 16.398438 245.523438 16.246094 Z M 245.523438 16.246094 " style=" fill-rule:nonzero;fill-opacity:1;" stroke="#D80027" fill="#D80027"/>
<path d="M 245.523438 454.164062 C 360.945312 454.164062 454.515625 360.59375 454.515625 245.171875 C 454.515625 129.75 360.945312 36.179688 245.523438 36.179688 C 130.101562 36.179688 36.53125 129.75 36.53125 245.171875 C 36.679688 360.535156 130.164062 454.015625 245.523438 454.164062 Z M 245.523438 52.445312 C 351.964844 52.445312 438.25 138.734375 438.25 245.171875 C 438.25 351.613281 351.964844 437.898438 245.523438 437.898438 C 139.085938 437.898438 52.796875 351.613281 52.796875 245.171875 C 52.890625 138.761719 139.113281 52.511719 245.523438 52.390625 Z M 245.523438 52.445312 " style=" fill-rule:nonzero;fill-opacity:1;" stroke="#D80027" fill="#D80027"/>
<path d="M 245.523438 105.679688 C 248.546875 105.679688 251 103.226562 251 100.203125 L 251 60.113281 C 251 57.089844 248.546875 54.636719 245.523438 54.636719 C 242.5 54.636719 240.046875 57.089844 240.046875 60.113281 L 240.046875 100.257812 C 240.074219 103.265625 242.519531 105.679688 245.523438 105.679688 Z M 245.523438 105.679688 " style=" fill-rule:nonzero;fill-opacity:1;" stroke="#D80027" fill="#D80027"/>
<path d="M 390.382812 250.59375 L 430.582031 250.59375 C 433.605469 250.59375 436.058594 248.140625 436.058594 245.117188 C 436.058594 242.09375 433.605469 239.640625 430.582031 239.640625 L 390.382812 239.640625 C 387.363281 239.640625 384.90625 242.09375 384.90625 245.117188 C 384.90625 248.140625 387.355469 250.59375 390.382812 250.59375 Z M 390.382812 250.59375 " style=" fill-rule:nonzero;fill-opacity:1;" stroke="#D80027" fill="#D80027"/>
<path d="M 245.523438 384.609375 C 242.5 384.609375 240.046875 387.0625 240.046875 390.085938 L 240.046875 430.285156 C 240.046875 433.308594 242.5 435.761719 245.523438 435.761719 C 248.546875 435.761719 251 433.308594 251 430.285156 L 251 390.03125 C 250.96875 387.03125 248.527344 384.609375 245.523438 384.609375 Z M 245.523438 384.609375 " style=" fill-rule:nonzero;fill-opacity:1;" stroke="#D80027" fill="#D80027"/>
<path d="M 100.664062 239.695312 L 60.464844 239.695312 C 57.441406 239.695312 54.988281 242.148438 54.988281 245.171875 C 54.988281 248.195312 57.441406 250.648438 60.464844 250.648438 L 100.609375 250.648438 C 103.632812 250.648438 106.085938 248.195312 106.085938 245.171875 C 106.085938 242.148438 103.632812 239.695312 100.609375 239.695312 Z M 100.664062 239.695312 " style=" fill-rule:nonzero;fill-opacity:1;" stroke="#D80027" fill="#D80027"/>
<path d="M 347.9375 148.125 C 349.375 148.121094 350.753906 147.550781 351.773438 146.535156 L 380.199219 118.113281 C 382.011719 115.691406 381.523438 112.257812 379.101562 110.445312 C 377.152344 108.984375 374.480469 108.984375 372.53125 110.445312 L 344.105469 138.867188 C 342.019531 141.058594 342.101562 144.527344 344.289062 146.613281 C 345.273438 147.554688 346.574219 148.089844 347.9375 148.125 Z M 347.9375 148.125 " style=" fill-rule:nonzero;fill-opacity:1;" stroke="#D80027" fill="#D80027"/>
<path d="M 372.53125 379.84375 C 374.34375 382.265625 377.777344 382.753906 380.199219 380.941406 C 382.617188 379.128906 383.105469 375.695312 381.292969 373.273438 C 380.980469 372.859375 380.613281 372.492188 380.199219 372.179688 L 351.773438 343.753906 C 349.351562 341.941406 345.917969 342.429688 344.105469 344.851562 C 342.644531 346.800781 342.644531 349.472656 344.105469 351.421875 Z M 372.53125 379.84375 " style=" fill-rule:nonzero;fill-opacity:1;" stroke="#D80027" fill="#D80027"/>
<path d="M 114.632812 381.433594 C 116.066406 381.429688 117.445312 380.859375 118.464844 379.84375 L 146.945312 351.421875 C 148.757812 349 148.269531 345.566406 145.847656 343.753906 C 143.898438 342.292969 141.226562 342.292969 139.277344 343.753906 L 110.796875 372.179688 C 108.710938 374.367188 108.792969 377.835938 110.980469 379.921875 C 111.964844 380.863281 113.269531 381.402344 114.632812 381.433594 Z M 114.632812 381.433594 " style=" fill-rule:nonzero;fill-opacity:1;" stroke="#D80027" fill="#D80027"/>
<path d="M 139.277344 146.535156 C 141.695312 148.347656 145.128906 147.863281 146.941406 145.441406 C 148.40625 143.492188 148.40625 140.820312 146.941406 138.867188 L 118.519531 110.445312 C 116.097656 108.632812 112.664062 109.121094 110.851562 111.539062 C 109.390625 113.488281 109.390625 116.164062 110.851562 118.113281 Z M 139.277344 146.535156 " style=" fill-rule:nonzero;fill-opacity:1;" stroke="#D80027" fill="#D80027"/>
<path d="M 163.046875 335.757812 C 165.21875 335.785156 167.3125 334.9375 168.851562 333.402344 L 232.765625 269.4375 C 236.6875 271.554688 241.066406 272.683594 245.527344 272.722656 C 260.648438 272.722656 272.910156 260.460938 272.910156 245.335938 C 272.859375 242.40625 272.34375 239.503906 271.375 236.738281 L 317.652344 226.113281 C 321.5625 225.230469 324.242188 221.625 323.953125 217.625 C 322.90625 205.285156 317.910156 193.609375 309.710938 184.328125 C 300.269531 175.535156 288.167969 170.140625 275.316406 168.992188 C 271.734375 168.9375 268.539062 171.226562 267.433594 174.632812 L 254.070312 219.046875 C 251.320312 218.105469 248.433594 217.609375 245.527344 217.570312 C 230.40625 217.570312 218.140625 229.832031 218.140625 244.953125 C 218.179688 249.410156 219.308594 253.792969 221.429688 257.714844 L 157.296875 321.902344 C 154.117188 325.09375 154.128906 330.265625 157.320312 333.441406 C 158.773438 334.886719 160.722656 335.734375 162.769531 335.8125 Z M 280.742188 186.1875 C 287.371094 187.722656 293.480469 190.992188 298.429688 195.664062 C 302.566406 200.230469 305.433594 205.800781 306.753906 211.820312 L 270.554688 220.144531 Z M 245.523438 233.835938 C 247.960938 233.832031 250.332031 234.640625 252.261719 236.136719 C 252.261719 236.136719 252.261719 236.574219 252.699219 236.738281 C 253.140625 237.199219 253.640625 237.605469 254.175781 237.945312 C 255.90625 239.929688 256.859375 242.484375 256.859375 245.117188 C 256.859375 251.351562 251.8125 256.402344 245.578125 256.402344 C 239.347656 256.402344 234.296875 251.351562 234.296875 245.117188 C 234.296875 238.90625 239.3125 233.867188 245.523438 233.835938 Z M 245.523438 233.835938 " style=" fill-rule:nonzero;fill-opacity:1;" stroke="#D80027" fill="#D80027"/>
</g>
</svg>
